<?xml version="1.0" encoding="utf-8"?>
<!-- Svg Vector Icons : http://www.onlinewebfonts.com/icon -->
<!DOCTYPE svg PUBLIC "-//W3C//DTD SVG 1.1//EN" "http://www.w3.org/Graphics/SVG/1.1/DTD/svg11.dtd">
<svg version="1.1" xmlns="http://www.w3.org/2000/svg" xmlns:xlink="http://www.w3.org/1999/xlink" x="0px" y="0px" viewBox="0 0 1000 1000" enable-background="new 0 0 1000 1000" xml:space="preserve">
<metadata> Svg Vector Icons : http://www.onlinewebfonts.com/icon </metadata>
<g><g transform="translate(0.000000,511.000000) scale(0.100000,-0.100000)"><path d="M4752,3561.4l-1130.8-11.9l-208.3-51.6c-503.9-125-882.8-305.5-1259.7-601.1c-609-480.1-1019.7-1162.5-1172.4-1954C953,798,947.1,555.9,939.1-787.1l-9.9-1563.2H514.6H100v-168.6v-168.6l1013.7-4l1013.7-5.9l35.7-111.1c63.5-208.3,230.1-396.8,434.4-490c91.3-43.6,140.9-51.6,279.7-53.6c142.8,0,186.5,7.9,283.7,53.6c63.5,29.8,152.8,83.3,196.4,119c103.2,81.3,224.2,265.8,255.9,392.8l25.8,99.2H5000h1360.9l25.8-99.2c63.5-250,285.7-470.2,547.5-547.5c367-105.2,783.6,136.9,902.6,525.7l35.7,111.1l1013.7,5.9l1013.7,4v168.6v168.6h-416.6h-416.6v1384.7c0,759.8-9.9,1491.8-19.8,1622.8c-33.7,436.4-123,757.8-327.3,1168.5c-420.6,849.1-1222,1472-2154.4,1674.3c-158.7,33.7-642.8,89.3-672.5,77.4C5886.8,3575.3,5374.9,3567.4,4752,3561.4z M6442.2,3196.4c589.2-115.1,1061.3-367,1474-783.6c406.7-408.7,632.8-831.2,759.8-1410.5c39.7-180.5,41.7-257.9,47.6-1769.6l7.9-1583.1H8303h-426.5v505.9v505.9h-168.6h-168.6V-2023c0-573.3-6-698.3-29.8-759.8c-67.5-160.7-200.4-242-390.8-242c-216.2,2-359.1,101.2-410.7,287.6c-13.9,49.6-21.8,323.4-21.8,740v658.6h-168.6H6349v-505.9v-505.9H4992.1H3635.1l4,505.9l2,505.9h-162.7h-164.7v-658.6c0-700.3-7.9-771.7-93.2-886.8c-138.9-180.5-492-192.4-654.7-17.8c-101.2,107.1-105.1,142.8-105.1,878.8v684.4h-168.6h-168.6v-505.9v-505.9H1697h-426.5v1483.9c0,1172.4,5.9,1525.6,29.8,1690.2c89.3,652.7,357.1,1184.3,831.2,1642.6c440.4,424.5,1003.8,686.4,1630.7,755.8c85.3,9.9,688.4,15.9,1337.1,11.9C6089.1,3230.1,6305.3,3224.2,6442.2,3196.4z"/><path d="M3651,232.6c0-178.5-47.6-311.5-148.8-410.6c-99.2-101.2-232.1-148.8-410.6-148.8h-115.1v-160.7v-160.7l184.5,7.9c156.7,5.9,202.4,15.9,317.4,69.4c311.5,148.8,509.8,476.1,509.8,845.1v73.4h-168.6H3651V232.6z"/><path d="M6011.7,274.2c0-369,198.4-696.3,509.8-845.1c115.1-53.6,160.7-63.5,319.4-69.4l182.5-7.9v160.7v160.7h-115.1c-349.2,0-559.4,206.3-559.4,549.5v125h-168.6h-168.6V274.2z"/></g></g>
</svg>